<svg width="194" height="30" viewBox="0 0 194 30" fill="none" xmlns="http://www.w3.org/2000/svg">
  <!-- 智能标注平台 Logo -->
  <!-- 左侧图标：标签 + AI 电路 -->
  <g>
    <!-- 标签外框 -->
    <path d="M27.2 3.5H4.8C4.1 3.5 3.5 4.1 3.5 4.8V25.2C3.5 25.9 4.1 26.5 4.8 26.5H27.2C27.9 26.5 28.5 25.9 28.5 25.2V4.8C28.5 4.1 27.9 3.5 27.2 3.5Z" fill="#1e40af"/>
    <!-- 标签顶部折角 -->
    <path d="M10.5 0H3.5C1.6 0 0 1.6 0 3.5V10.5L10.5 0Z" fill="#3b82f6"/>
    <!-- 对勾 -->
    <path d="M10 18L14 22L22 13" stroke="white" stroke-width="2.5" stroke-linecap="round" stroke-linejoin="round"/>
    <!-- AI 电路点 -->
    <circle cx="20" cy="9" r="1.5" fill="white"/>
    <circle cx="14" cy="9" r="1" fill="#93c5fd"/>
    <circle cx="26" cy="9" r="1" fill="#93c5fd"/>
    <line x1="15" y1="9" x2="18.5" y2="9" stroke="#60a5fa" stroke-width="1"/>
    <line x1="21.5" y1="9" x2="25" y2="9" stroke="#60a5fa" stroke-width="1"/>
  </g>
  <!-- 右侧文字：智引标注 -->
  <g>
    <text x="36" y="22" font-family="system-ui, -apple-system, 'PingFang SC', 'Microsoft YaHei', sans-serif" font-size="20" font-weight="700" fill="#111827">智引标注</text>
  </g>
</svg>
